<?xml version="1.0" encoding="utf-8"?>
<!-- Generator: Adobe Illustrator 19.1.0, SVG Export Plug-In . SVG Version: 6.00 Build 0)  -->
<svg version="1.1" id="Image_xA0_27" xmlns="http://www.w3.org/2000/svg" xmlns:xlink="http://www.w3.org/1999/xlink" x="0px"
	 y="0px" viewBox="-235 333 141 128" style="enable-background:new -235 333 141 128;" xml:space="preserve">
<g id="layer1" transform="translate(0,-540.36218)">
	<g id="g3753" transform="translate(-27.976858,-65.0243)">
		<path id="path3035" d="M-175.8,963v16.1h64.8c12.3,0,21.6,3.1,28,8.5s9.6,13,10.6,20.9c0.9,7.7-0.8,16.3-5.6,23.4
			s-13.1,12.4-23.9,12.4c0,0-4.6,0.2-4.6-4.2s4.6-4.4,4.6-4.4c8.1,0,13.2-3.5,16.7-8.6c3.5-5.1,4.8-11.9,4.2-17.5
			c-0.8-6.3-3.1-11.5-7.6-15.3s-11.5-6.5-22.4-6.5h-64.7v16.1l-26.3-20.4L-175.8,963z"/>
	</g>
</g>
</svg>
