<?xml version="1.0" encoding="utf-8"?>
<!-- Generator: Adobe Illustrator 18.1.1, SVG Export Plug-In . SVG Version: 6.00 Build 0)  -->
<!DOCTYPE svg PUBLIC "-//W3C//DTD SVG 1.1//EN" "http://www.w3.org/Graphics/SVG/1.1/DTD/svg11.dtd">
<svg version="1.1" id="Image_29" xmlns="http://www.w3.org/2000/svg" xmlns:xlink="http://www.w3.org/1999/xlink" x="0px" y="0px"
	 viewBox="0 0 141 128" enable-background="new 0 0 141 128" xml:space="preserve">
<path fill="#444953" d="M133.7,31l-6.5-6.6c-0.9-0.9-1.9-1.3-3-1.3c-1.1,0-2.1,0.4-3,1.3L70.6,76.5L19.9,24.3
	c-0.9-0.9-1.9-1.3-3-1.3c-1.1,0-2.1,0.4-3,1.3L7.5,31c-0.9,0.9-1.3,1.9-1.3,3.1c0,1.2,0.4,2.2,1.3,3.1L67.6,99
	c0.9,0.9,1.8,1.3,3,1.3c1.1,0,2.1-0.4,3-1.3l60.1-61.9c0.9-0.9,1.3-1.9,1.3-3.1C135,32.9,134.6,31.8,133.7,31L133.7,31z"/>
</svg>
