<?xml version="1.0" encoding="utf-8"?>
<!-- Generator: Adobe Illustrator 19.1.0, SVG Export Plug-In . SVG Version: 6.00 Build 0)  -->
<svg version="1.1" id="Image_xA0_27" xmlns="http://www.w3.org/2000/svg" xmlns:xlink="http://www.w3.org/1999/xlink" x="0px"
	 y="0px" viewBox="-235 333 141 128" style="enable-background:new -235 333 141 128;" xml:space="preserve">
<style type="text/css">
	.st0{fill:#FFFFFF;}
</style>
<g id="layer1" transform="translate(0,-540.36218)">
	<g id="g3753" transform="translate(-27.976858,-65.0243)">
		<path id="path3035" class="st0" d="M-98.4,1044.3v-16.1h-64.7c-12.3,0-21.6-3.1-28-8.5c-6.4-5.4-9.6-13-10.6-20.9
			c-0.9-7.7,0.8-16.3,5.6-23.4c4.8-7,13.1-12.4,23.9-12.4c0,0,4.6-0.2,4.6,4.2s-4.6,4.4-4.6,4.4c-8.1,0-13.2,3.5-16.7,8.6
			s-4.8,11.9-4.2,17.5c0.8,6.3,3.1,11.5,7.6,15.3s11.5,6.5,22.4,6.5h64.7v-16.1l26.2,20.4L-98.4,1044.3z"/>
	</g>
</g>
</svg>
