<?xml version="1.0" encoding="utf-8"?>
<!-- Generator: Adobe Illustrator 19.1.0, SVG Export Plug-In . SVG Version: 6.00 Build 0)  -->
<svg version="1.1" id="Layer_1" xmlns="http://www.w3.org/2000/svg" xmlns:xlink="http://www.w3.org/1999/xlink" x="0px" y="0px"
	 viewBox="249 331 114 130" style="enable-background:new 249 331 114 130;" xml:space="preserve">
<path d="M340.4,373.5c7.1,8,10.5,17.4,10.5,29c0,24.8-20.1,45-45,45s-45-20.1-45-45c0-22.3,16.2-40.7,37.5-44.3v-6.7h-8v-7h31v7h-8
	v6.7c8.6,1.5,15.3,4.3,21.5,9.9l8.8-8.8l5.4,5.4L340.4,373.5z M306,364.3c-21.1,0-38.2,17.1-38.2,38.2s17.1,38.2,38.2,38.2
	s38.2-17.1,38.2-38.2S327.1,364.3,306,364.3z M306,396.5c-3.3,0-6,2.7-6,6s2.7,6,6,6s6-2.7,6-6S309.3,396.5,306,396.5z M309.1,380
	h-5.7v-11.8h5.7V380z M309.1,437h-5.7v-11.8h5.7V437z M283.6,399.7v5.7h-11.8v-5.7H283.6z M340.6,399.7v5.7h-11.8v-5.7H340.6z"/>
</svg>
