<?xml version="1.0" encoding="utf-8"?>
<!-- Generator: Adobe Illustrator 19.1.0, SVG Export Plug-In . SVG Version: 6.00 Build 0)  -->
<svg version="1.1" id="Image_28" xmlns="http://www.w3.org/2000/svg" xmlns:xlink="http://www.w3.org/1999/xlink" x="0px" y="0px"
	 viewBox="-235 333 141 128" style="enable-background:new -235 333 141 128;" xml:space="preserve">
<style type="text/css">
	.st0{opacity:0.5;}
	.st1{fill:#FFFFFF;}
</style>
<g>
	<g id="miu" class="st0">
		<g id="editor_undo_arrow_outline_stroke">
			<g>
				<path class="st1" d="M-101.6,371.2c-30.8-29.8-78.2-32.3-111.8-7.6c-0.6,0.4-1.4,0.4-1.8-0.1l-8.7-8.7c-0.9-0.9-2.3-0.3-2.4,0.9
					l-2.4,25.9c-0.1,0.9,0.7,1.6,1.5,1.5l26-2.3c1.2-0.1,1.7-1.6,0.9-2.4l-7.2-7.2c-0.6-0.6-0.5-1.7,0.2-2.2
					c30.4-21.5,72.6-18.9,100.2,7.7c0.6,0.5,1.4,0.5,2,0l3.6-3.6C-101,372.6-101,371.7-101.6,371.2z"/>
			</g>
			<g>
				<path id="path-1_1_" class="st1" d="M-208.7,370l8.4,8.4c0.9,0.9,0.3,2.3-0.9,2.4l-26,2.4c-0.9,0.1-1.6-0.7-1.5-1.5l2.4-26
					c0.1-1.2,1.6-1.7,2.4-0.9l9.6,9.6"/>
			</g>
		</g>
	</g>
	<g id="miu_1_">
		<g id="editor_undo_arrow_outline_stroke_1_">
			<g>
				<path class="st1" d="M-227.8,422.8c30.8,29.8,78.2,32.3,111.8,7.5c0.6-0.4,1.4-0.4,1.8,0.1l8.7,8.7c0.9,0.9,2.3,0.3,2.4-0.9
					l2.4-25.9c0.1-0.9-0.7-1.6-1.5-1.5l-26,2.4c-1.2,0.1-1.7,1.6-0.9,2.4l7.2,7.2c0.6,0.6,0.5,1.7-0.2,2.2
					c-30.4,21.5-72.6,18.9-100.2-7.7c-0.6-0.5-1.4-0.5-2,0l-3.6,3.6C-228.4,421.4-228.4,422.3-227.8,422.8z"/>
			</g>
			<g>
				<path id="path-1_2_" class="st1" d="M-120.7,424l-8.4-8.4c-0.9-0.9-0.3-2.3,0.9-2.4l25.9-2.4c0.9-0.1,1.6,0.7,1.5,1.5l-2.4,25.9
					c-0.1,1.2-1.6,1.7-2.4,0.9l-9.6-9.6"/>
			</g>
		</g>
	</g>
</g>
</svg>
